<svg width="36" height="24" viewBox="0 0 36 24" fill="none" xmlns="http://www.w3.org/2000/svg">
<g id="icon-adidas-carte-bancaire" clip-path="url(#clip0_178_1457)">
<path id="vector" fill-rule="evenodd" clip-rule="evenodd" d="M37.5114 0H-1.40002V24H37.5114V0ZM18.9185 12.0331H12.1013V12.481H18.9292V12.4879C18.9292 13.9704 18.5042 15.6094 17.2746 16.5823C16.0413 17.5564 14.0015 17.864 12.1185 17.864C10.1801 17.864 8.17018 17.5916 6.92976 16.5662C5.76325 15.6013 5.30844 13.9271 5.30844 12.4879C5.30844 11.1138 5.54091 9.58457 6.61622 8.63411C7.8632 7.53072 10.0979 7.11233 12.1185 7.11233C14.0599 7.11233 16.2326 7.49379 17.473 8.52215C18.5144 9.38547 18.8577 10.7295 18.9185 12.0331ZM19.3759 12.4813V17.6238H28.8594V17.6168C30.2471 17.5499 31.351 16.443 31.351 15.084C31.351 13.7244 30.2471 12.5466 28.8594 12.479V12.4813H19.3759ZM28.7515 7.32736C30.104 7.32736 31.1775 8.36554 31.1775 9.67553C31.1775 10.9157 30.1916 11.9285 28.9375 12.0329H19.3759V7.31986H28.4523C28.5081 7.31382 28.5732 7.31807 28.6368 7.32222C28.6765 7.32481 28.7156 7.32736 28.7515 7.32736Z" fill="url(#paint0_linear_178_1457)"/>
</g>
<defs>
<linearGradient id="paint0_linear_178_1457" x1="1896.41" y1="1702.12" x2="3625.75" y2="-31.0798" gradientUnits="userSpaceOnUse">
<stop stop-color="#279944"/>
<stop offset="0.488859" stop-color="#1488BA"/>
<stop offset="1" stop-color="#073266"/>
</linearGradient>
<clipPath id="clip0_178_1457">
<rect width="36" height="24" fill="white"/>
</clipPath>
</defs>
</svg>
